<svg xmlns="http://www.w3.org/2000/svg" xmlns:xlink="http://www.w3.org/1999/xlink" width="70" height="70" viewBox="0 0 70 70"><defs><style>.a,.f{fill:none;}.b{clip-path:url(#a);}.c{fill:#31b388;}.d{fill:#2a2a2a;}.e{fill:#fff;}.f{stroke:#85e5c0;stroke-miterlimit:10;}</style><clipPath id="a"><rect class="a" width="70" height="70"/></clipPath></defs><g transform="translate(0.286 0.449)"><g class="b" transform="translate(-0.286 -0.449)"><path class="c" d="M69.278,34.639A34.639,34.639,0,1,1,34.639,0,34.639,34.639,0,0,1,69.278,34.639" transform="translate(0.254 0.468)"/><path class="d" d="M77.185,45.705A31.481,31.481,0,1,1,45.7,14.225a31.481,31.481,0,0,1,31.48,31.48" transform="translate(-10.812 -10.598)"/><path class="e" d="M85.226,56.956A28.269,28.269,0,1,1,56.956,28.687,28.269,28.269,0,0,1,85.226,56.956" transform="translate(-22.063 -21.849)"/><path class="d" d="M153.164,21.865h-.038a.735.735,0,0,1-.735-.735v-4.4a.735.735,0,0,1,.735-.735h.038a.735.735,0,0,1,.735.735v4.4a.735.735,0,0,1-.735.735" transform="translate(-118.3 -11.979)"/><path class="d" d="M153.164,275.71h-.038a.735.735,0,0,1-.735-.735v-4.4a.735.735,0,0,1,.735-.735h.038a.735.735,0,0,1,.735.735v4.4a.735.735,0,0,1-.735.735" transform="translate(-118.3 -209.459)"/><path class="d" d="M21.521,153.471v.038a.735.735,0,0,1-.735.735h-4.4a.735.735,0,0,1-.735-.735v-.038a.735.735,0,0,1,.735-.735h4.4a.735.735,0,0,1,.735.735" transform="translate(-11.926 -118.354)"/><path class="d" d="M275.366,153.471v.038a.735.735,0,0,1-.735.735h-4.4a.735.735,0,0,1-.735-.735v-.038a.735.735,0,0,1,.735-.735h4.4a.735.735,0,0,1,.735.735" transform="translate(-209.406 -118.354)"/><path class="c" d="M152.54,92.355l-.061-.01a.811.811,0,0,1-.672-.93l2.826-17.524a.811.811,0,0,1,.93-.672l.062.01a.811.811,0,0,1,.671.93l-2.826,17.524a.811.811,0,0,1-.93.672" transform="translate(-117.837 -56.485)"/><path class="c" d="M152.919,152.916l.022-.058a.811.811,0,0,1,1.044-.475l11.495,4.306a.811.811,0,0,1,.475,1.044l-.022.058a.811.811,0,0,1-1.044.475l-11.495-4.307a.811.811,0,0,1-.475-1.044" transform="translate(-118.67 -118.038)"/><line class="f" x1="12.634" y2="11.371" transform="translate(34.988 23.647)"/><path class="d" d="M148.356,145.3a3.053,3.053,0,1,1-3.053-3.053,3.053,3.053,0,0,1,3.053,3.053" transform="translate(-110.409 -110.195)"/></g></g></svg>